%FSLAX24Y24*%
%MOIN*%
G70*
G01*
G75*
G04 Layer_Physical_Order=2*
G04 Layer_Color=16711680*
%ADD10R,0.0400X0.0500*%
%ADD11R,0.0500X0.0500*%
%ADD12C,0.0315*%
%ADD13C,0.0394*%
%ADD14C,0.0236*%
%ADD15C,0.0100*%
%ADD16C,0.0827*%
%ADD17O,0.0787X0.0630*%
%ADD18R,0.0787X0.0630*%
%ADD19C,0.1181*%
%ADD20C,0.0591*%
%ADD21R,0.0591X0.0591*%
%ADD22C,0.1260*%
%ADD23C,0.0669*%
%ADD24C,0.0669*%
%ADD25R,0.0669X0.0669*%
%ADD26O,0.0787X0.0669*%
%ADD27R,0.0787X0.0669*%
%ADD28C,0.0315*%
%ADD29C,0.0394*%
%ADD30R,0.0400X0.0400*%
%ADD31R,0.0500X0.0500*%
%ADD32O,0.0236X0.0866*%
%ADD33C,0.0197*%
G36*
X50850Y45700D02*
Y45700D01*
X50915Y45743D01*
X51501Y45501D01*
X51770Y44850D01*
X51700Y12450D01*
X51700D01*
X51736Y12397D01*
X51536Y11914D01*
X51000Y11692D01*
X30100Y11750D01*
Y11750D01*
X30039Y11709D01*
X29488Y11938D01*
X29234Y12550D01*
X29300Y44844D01*
X29300Y44844D01*
X29300D01*
X29300D01*
Y44845D01*
X29300Y44850D01*
Y44895D01*
X29300Y44900D01*
D01*
D01*
D01*
Y44900D01*
X29300Y45069D01*
X29499Y45551D01*
X30150Y45820D01*
X50850Y45700D01*
D02*
G37*
%LPC*%
G36*
X31140Y21650D02*
X30463D01*
X30661Y21171D01*
X31140Y20973D01*
Y21650D01*
D02*
G37*
G36*
X31917D02*
X31240D01*
Y20973D01*
X31719Y21171D01*
X31917Y21650D01*
D02*
G37*
G36*
X31140Y22427D02*
X30661Y22229D01*
X30463Y21750D01*
X31140D01*
Y22427D01*
D02*
G37*
G36*
X46950Y15358D02*
X46803Y15297D01*
X46742Y15150D01*
X46950D01*
Y15358D01*
D02*
G37*
G36*
X47050D02*
Y15150D01*
X47258D01*
X47197Y15297D01*
X47050Y15358D01*
D02*
G37*
G36*
X35359Y27800D02*
X34341D01*
X34458Y27517D01*
X34600Y27459D01*
X34584Y27381D01*
X34259D01*
Y26319D01*
X34424D01*
Y20477D01*
X34213Y20266D01*
X31866D01*
X31793Y20443D01*
X31190Y20692D01*
X30587Y20443D01*
X30514Y20266D01*
X30340D01*
X30039Y20141D01*
X29649Y19751D01*
X29524Y19450D01*
Y17147D01*
X29503D01*
Y16324D01*
X29501D01*
Y15430D01*
X30325D01*
X30369Y15365D01*
X30338Y15290D01*
X30587Y14687D01*
X31190Y14438D01*
X31793Y14687D01*
X32042Y15290D01*
X31793Y15893D01*
X31190Y16142D01*
X30928Y16034D01*
X30844Y16118D01*
X30603Y16218D01*
X30397D01*
Y16253D01*
X30397D01*
Y16945D01*
X30474Y16961D01*
X30587Y16687D01*
X31190Y16438D01*
X31793Y16687D01*
X31901Y16949D01*
X33482D01*
Y16809D01*
X33482D01*
Y16769D01*
X33451Y16756D01*
X33199D01*
Y16506D01*
X33499D01*
Y16406D01*
X33179D01*
Y15750D01*
X33128D01*
Y15450D01*
X33478D01*
Y15400D01*
X33528D01*
Y15050D01*
X33798D01*
Y15050D01*
X33798Y15050D01*
X33828Y15050D01*
X33854Y15024D01*
Y14951D01*
X34748D01*
Y15407D01*
X34857Y15516D01*
X34900D01*
X35171Y15629D01*
X35284Y15900D01*
X35171Y16171D01*
X34900Y16284D01*
X34699D01*
X34646Y16319D01*
Y16853D01*
X34276D01*
Y17703D01*
X33482D01*
Y17631D01*
X31901D01*
X31793Y17893D01*
X31190Y18142D01*
X30587Y17893D01*
X30453Y17569D01*
X30376Y17585D01*
Y19273D01*
X30465Y19362D01*
X30542Y19347D01*
X30587Y19237D01*
X31190Y18988D01*
X31793Y19237D01*
X31866Y19414D01*
X34390D01*
X34691Y19539D01*
X34691Y19539D01*
X34691Y19539D01*
X35151Y19999D01*
X35276Y20300D01*
X35276Y20300D01*
X35276Y20300D01*
Y26319D01*
X35441D01*
Y27381D01*
X35116D01*
X35100Y27459D01*
X35242Y27517D01*
X35359Y27800D01*
D02*
G37*
G36*
X31190Y24422D02*
X30587Y24173D01*
X30338Y23570D01*
X30587Y22967D01*
X31190Y22718D01*
X31793Y22967D01*
X31883Y23186D01*
X32080D01*
Y22905D01*
X32903D01*
Y22903D01*
X32966D01*
Y22695D01*
X32926D01*
Y22626D01*
X32900Y22600D01*
X32870Y22600D01*
X32870Y22600D01*
Y22600D01*
X32600D01*
Y22250D01*
Y21900D01*
X32870D01*
Y21900D01*
X32870Y21900D01*
X32900Y21900D01*
X32926Y21874D01*
Y21801D01*
X33820D01*
Y22695D01*
X33734D01*
Y22903D01*
X33797D01*
Y23797D01*
X32974D01*
Y23799D01*
X32623D01*
X32580Y23841D01*
X32309Y23954D01*
X31883D01*
X31793Y24173D01*
X31190Y24422D01*
D02*
G37*
G36*
X30350Y28145D02*
X29717Y27883D01*
X29455Y27250D01*
X29717Y26617D01*
X30350Y26355D01*
X30983Y26617D01*
X31245Y27250D01*
X30983Y27883D01*
X30350Y28145D01*
D02*
G37*
G36*
X42240Y27400D02*
X41940D01*
Y27100D01*
X42240D01*
Y27400D01*
D02*
G37*
G36*
X31240Y22427D02*
Y21750D01*
X31917D01*
X31719Y22229D01*
X31240Y22427D01*
D02*
G37*
G36*
X32500Y22200D02*
X32200D01*
Y21900D01*
X32500D01*
Y22200D01*
D02*
G37*
G36*
Y22600D02*
X32200D01*
Y22300D01*
X32500D01*
Y22600D01*
D02*
G37*
G36*
X41500Y13757D02*
Y13400D01*
X41857D01*
X41753Y13653D01*
X41500Y13757D01*
D02*
G37*
G36*
X49400Y14850D02*
X49015D01*
Y14465D01*
X49400D01*
Y14850D01*
D02*
G37*
G36*
X46150Y15050D02*
X45942D01*
X46003Y14903D01*
X46150Y14842D01*
Y15050D01*
D02*
G37*
G36*
X30650Y13895D02*
X30017Y13633D01*
X29755Y13000D01*
X30017Y12367D01*
X30650Y12105D01*
X31283Y12367D01*
X31545Y13000D01*
X31283Y13633D01*
X30650Y13895D01*
D02*
G37*
G36*
X49950D02*
X49317Y13633D01*
X49055Y13000D01*
X49317Y12367D01*
X49950Y12105D01*
X50583Y12367D01*
X50845Y13000D01*
X50583Y13633D01*
X49950Y13895D01*
D02*
G37*
G36*
X41857Y13300D02*
X41500D01*
Y12943D01*
X41753Y13047D01*
X41857Y13300D01*
D02*
G37*
G36*
X33428Y15350D02*
X33128D01*
Y15050D01*
X33428D01*
Y15350D01*
D02*
G37*
G36*
X46150Y15358D02*
X46003Y15297D01*
X45942Y15150D01*
X46150D01*
Y15358D01*
D02*
G37*
G36*
X46250D02*
Y15150D01*
X46458D01*
X46397Y15297D01*
X46250Y15358D01*
D02*
G37*
G36*
X46458Y15050D02*
X46250D01*
Y14842D01*
X46397Y14903D01*
X46458Y15050D01*
D02*
G37*
G36*
X46950D02*
X46742D01*
X46803Y14903D01*
X46950Y14842D01*
Y15050D01*
D02*
G37*
G36*
X47258D02*
X47050D01*
Y14842D01*
X47197Y14903D01*
X47258Y15050D01*
D02*
G37*
G36*
X45036Y30395D02*
X44850D01*
Y29915D01*
X44967Y29963D01*
X45036Y30130D01*
Y30395D01*
D02*
G37*
G36*
X31650Y39608D02*
Y39400D01*
X31858D01*
X31797Y39547D01*
X31650Y39608D01*
D02*
G37*
G36*
X31550Y40650D02*
X31342D01*
X31403Y40503D01*
X31550Y40442D01*
Y40650D01*
D02*
G37*
G36*
X31858D02*
X31650D01*
Y40442D01*
X31797Y40503D01*
X31858Y40650D01*
D02*
G37*
G36*
X31550Y39300D02*
X31342D01*
X31403Y39153D01*
X31550Y39092D01*
Y39300D01*
D02*
G37*
G36*
X31858D02*
X31650D01*
Y39092D01*
X31797Y39153D01*
X31858Y39300D01*
D02*
G37*
G36*
X31550Y39608D02*
X31403Y39547D01*
X31342Y39400D01*
X31550D01*
Y39608D01*
D02*
G37*
G36*
Y40958D02*
X31403Y40897D01*
X31342Y40750D01*
X31550D01*
Y40958D01*
D02*
G37*
G36*
X31650Y42458D02*
X31503Y42397D01*
X31442Y42250D01*
X31650D01*
Y42458D01*
D02*
G37*
G36*
X31750D02*
Y42250D01*
X31958D01*
X31897Y42397D01*
X31750Y42458D01*
D02*
G37*
G36*
X35500Y44911D02*
X35033Y44717D01*
X34839Y44250D01*
X35033Y43783D01*
X35500Y43589D01*
X35967Y43783D01*
X36161Y44250D01*
X35967Y44717D01*
X35500Y44911D01*
D02*
G37*
G36*
X31650Y40958D02*
Y40750D01*
X31858D01*
X31797Y40897D01*
X31650Y40958D01*
D02*
G37*
G36*
Y42150D02*
X31442D01*
X31503Y42003D01*
X31650Y41942D01*
Y42150D01*
D02*
G37*
G36*
X31958D02*
X31750D01*
Y41942D01*
X31897Y42003D01*
X31958Y42150D01*
D02*
G37*
G36*
X40625Y35109D02*
X40354Y34996D01*
X38252Y32894D01*
X38186Y32938D01*
X38295Y33200D01*
X38033Y33833D01*
X37400Y34095D01*
X36767Y33833D01*
X36505Y33200D01*
X36767Y32567D01*
X37400Y32305D01*
X37662Y32414D01*
X37706Y32348D01*
X35591Y30234D01*
X35325D01*
X35316Y30257D01*
X35186Y30311D01*
Y30389D01*
X35316Y30443D01*
X35484Y30850D01*
X35316Y31257D01*
X35186Y31311D01*
Y31389D01*
X35316Y31443D01*
X35484Y31850D01*
X35316Y32257D01*
X35186Y32311D01*
Y32389D01*
X35316Y32443D01*
X35484Y32850D01*
X35316Y33257D01*
X35186Y33311D01*
Y33389D01*
X35316Y33443D01*
X35484Y33850D01*
X35316Y34257D01*
X34909Y34425D01*
X34791D01*
X34384Y34257D01*
X34216Y33850D01*
X34384Y33443D01*
X34514Y33389D01*
Y33311D01*
X34384Y33257D01*
X34216Y32850D01*
X34384Y32443D01*
X34514Y32389D01*
Y32311D01*
X34384Y32257D01*
X34216Y31850D01*
X34384Y31443D01*
X34514Y31389D01*
Y31311D01*
X34384Y31257D01*
X34216Y30850D01*
X34384Y30443D01*
X34514Y30389D01*
Y30311D01*
X34384Y30257D01*
X34216Y29850D01*
X34384Y29443D01*
X34514Y29389D01*
Y29311D01*
X34384Y29257D01*
X34216Y28850D01*
X34384Y28443D01*
X34641Y28337D01*
Y28258D01*
X34458Y28183D01*
X34341Y27900D01*
X35359D01*
X35242Y28183D01*
X35059Y28258D01*
Y28337D01*
X35316Y28443D01*
X35325Y28466D01*
X35500D01*
X35771Y28579D01*
X41071Y33879D01*
X41127Y34014D01*
X41184Y34150D01*
X41137Y34262D01*
X41071Y34421D01*
X40992Y34454D01*
X40962Y34527D01*
X41034Y34700D01*
X40921Y34971D01*
X40904Y34979D01*
X40896Y34996D01*
X40625Y35109D01*
D02*
G37*
G36*
X50450Y34475D02*
X50043Y34307D01*
X49989Y34177D01*
X49911D01*
X49857Y34307D01*
X49450Y34475D01*
X49043Y34307D01*
X48875Y33900D01*
X49043Y33493D01*
X49173Y33439D01*
Y33361D01*
X49043Y33307D01*
X48875Y32900D01*
X49043Y32493D01*
X49173Y32439D01*
Y32361D01*
X49043Y32307D01*
X48875Y31900D01*
X49043Y31493D01*
X49173Y31439D01*
Y31361D01*
X49043Y31307D01*
X48875Y30900D01*
X49043Y30493D01*
X49173Y30439D01*
Y30361D01*
X49043Y30307D01*
X48875Y29900D01*
X49043Y29493D01*
X49173Y29439D01*
Y29361D01*
X49043Y29307D01*
X48875Y28900D01*
X49043Y28493D01*
X49173Y28439D01*
Y28361D01*
X49043Y28307D01*
X48875Y27900D01*
X49043Y27493D01*
X49173Y27439D01*
Y27361D01*
X49043Y27307D01*
X48875Y26900D01*
X49043Y26493D01*
X49173Y26439D01*
Y26361D01*
X49043Y26307D01*
X48875Y25900D01*
X49043Y25493D01*
X49173Y25439D01*
Y25361D01*
X49043Y25307D01*
X48875Y24900D01*
X49043Y24493D01*
X49173Y24439D01*
Y24361D01*
X49043Y24307D01*
X48875Y23900D01*
X49043Y23493D01*
X49173Y23439D01*
Y23361D01*
X49043Y23307D01*
X48875Y22900D01*
X49043Y22493D01*
X49300Y22387D01*
Y22308D01*
X49117Y22233D01*
X49000Y21950D01*
X49450D01*
Y21850D01*
X49000D01*
X49117Y21567D01*
X49300Y21492D01*
Y21413D01*
X49043Y21307D01*
X48875Y20900D01*
X49043Y20493D01*
X49173Y20439D01*
Y20361D01*
X49043Y20307D01*
X48875Y19900D01*
X49043Y19493D01*
X49173Y19439D01*
Y19361D01*
X49043Y19307D01*
X48875Y18900D01*
X49043Y18493D01*
X49173Y18439D01*
Y18361D01*
X49043Y18307D01*
X48875Y17900D01*
X49043Y17493D01*
X49173Y17439D01*
Y17361D01*
X49043Y17307D01*
X48875Y16900D01*
X49043Y16493D01*
X49173Y16439D01*
Y16361D01*
X49043Y16307D01*
X48875Y15900D01*
X49043Y15493D01*
X49240Y15412D01*
X49224Y15335D01*
X49015D01*
Y14950D01*
X49450D01*
Y14900D01*
X49500D01*
Y14465D01*
X49885D01*
Y14674D01*
X49962Y14690D01*
X50043Y14493D01*
X50450Y14325D01*
X50857Y14493D01*
X51025Y14900D01*
X50857Y15307D01*
X50727Y15361D01*
Y15439D01*
X50857Y15493D01*
X51025Y15900D01*
X50857Y16307D01*
X50727Y16361D01*
Y16439D01*
X50857Y16493D01*
X51025Y16900D01*
X50857Y17307D01*
X50600Y17413D01*
Y17492D01*
X50783Y17567D01*
X50900Y17850D01*
X50450D01*
Y17950D01*
X50900D01*
X50783Y18233D01*
X50600Y18308D01*
Y18387D01*
X50857Y18493D01*
X51025Y18900D01*
X50857Y19307D01*
X50600Y19413D01*
Y19492D01*
X50783Y19567D01*
X50900Y19850D01*
X50450D01*
Y19950D01*
X50900D01*
X50783Y20233D01*
X50600Y20308D01*
Y20387D01*
X50857Y20493D01*
X51025Y20900D01*
X50857Y21307D01*
X50727Y21361D01*
Y21439D01*
X50857Y21493D01*
X51025Y21900D01*
X50857Y22307D01*
X50727Y22361D01*
Y22439D01*
X50857Y22493D01*
X51025Y22900D01*
X50857Y23307D01*
X50727Y23361D01*
Y23439D01*
X50857Y23493D01*
X51025Y23900D01*
X50857Y24307D01*
X50600Y24413D01*
Y24492D01*
X50783Y24567D01*
X50900Y24850D01*
X50450D01*
Y24950D01*
X50900D01*
X50783Y25233D01*
X50600Y25308D01*
Y25387D01*
X50857Y25493D01*
X51025Y25900D01*
X50857Y26307D01*
X50727Y26361D01*
Y26439D01*
X50857Y26493D01*
X51025Y26900D01*
X50857Y27307D01*
X50600Y27413D01*
Y27492D01*
X50783Y27567D01*
X50900Y27850D01*
X50450D01*
Y27950D01*
X50900D01*
X50783Y28233D01*
X50600Y28308D01*
Y28387D01*
X50857Y28493D01*
X51025Y28900D01*
X50857Y29307D01*
X50727Y29361D01*
Y29439D01*
X50857Y29493D01*
X51025Y29900D01*
X50857Y30307D01*
X50727Y30361D01*
Y30439D01*
X50857Y30493D01*
X51025Y30900D01*
X50857Y31307D01*
X50600Y31413D01*
Y31492D01*
X50783Y31567D01*
X50900Y31850D01*
X50450D01*
Y31950D01*
X50900D01*
X50783Y32233D01*
X50600Y32308D01*
Y32387D01*
X50857Y32493D01*
X51025Y32900D01*
X50857Y33307D01*
X50727Y33361D01*
Y33439D01*
X50857Y33493D01*
X51025Y33900D01*
X50857Y34307D01*
X50450Y34475D01*
D02*
G37*
G36*
X30650Y36695D02*
X30017Y36433D01*
X29755Y35800D01*
X30017Y35167D01*
X30650Y34905D01*
X31283Y35167D01*
X31545Y35800D01*
X31283Y36433D01*
X30650Y36695D01*
D02*
G37*
G36*
X44850Y30975D02*
Y30495D01*
X45036D01*
Y30760D01*
X44967Y30927D01*
X44850Y30975D01*
D02*
G37*
G36*
X46500Y34095D02*
X45867Y33833D01*
X45605Y33200D01*
X45867Y32567D01*
X46500Y32305D01*
X47133Y32567D01*
X47395Y33200D01*
X47133Y33833D01*
X46500Y34095D01*
D02*
G37*
G36*
X30350Y34445D02*
X29717Y34183D01*
X29455Y33550D01*
X29717Y32917D01*
X30350Y32655D01*
X30983Y32917D01*
X31245Y33550D01*
X30983Y34183D01*
X30350Y34445D01*
D02*
G37*
G36*
X45450Y36708D02*
Y36500D01*
X45658D01*
X45597Y36647D01*
X45450Y36708D01*
D02*
G37*
G36*
X45350D02*
X45203Y36647D01*
X45189Y36614D01*
X45111D01*
X45097Y36647D01*
X44950Y36708D01*
Y36450D01*
Y36192D01*
X45097Y36253D01*
X45111Y36286D01*
X45189D01*
X45203Y36253D01*
X45350Y36192D01*
Y36450D01*
Y36708D01*
D02*
G37*
G36*
X48091Y44762D02*
X46909D01*
Y43738D01*
X47061D01*
X47076Y43661D01*
X47030Y43642D01*
X46867Y43250D01*
X47030Y42858D01*
X47322Y42737D01*
Y42658D01*
X47104Y42568D01*
X46993Y42300D01*
X47500D01*
Y42200D01*
X46993D01*
X47104Y41932D01*
X47322Y41842D01*
Y41763D01*
X47030Y41642D01*
X47026Y41634D01*
X44100D01*
X43829Y41521D01*
X43716Y41250D01*
X43829Y40979D01*
X44100Y40866D01*
X47026D01*
X47030Y40858D01*
X47196Y40789D01*
Y40711D01*
X47130Y40684D01*
X43350D01*
X43079Y40571D01*
X41529Y39021D01*
X41416Y38750D01*
Y31249D01*
X41344Y31219D01*
X41051Y31511D01*
X40750Y31636D01*
X40210D01*
X39909Y31511D01*
X39849Y31451D01*
X39724Y31150D01*
X39849Y30849D01*
X40150Y30724D01*
X40295Y30784D01*
X40573D01*
X40874Y30483D01*
Y30445D01*
X40959Y30239D01*
Y30130D01*
X41059Y29889D01*
X41300Y29789D01*
X41541Y29889D01*
X41541Y29889D01*
X41559D01*
Y29889D01*
X41800Y29789D01*
X42041Y29889D01*
X42041Y29889D01*
X42059D01*
Y29889D01*
X42300Y29789D01*
X42394Y29828D01*
X42459Y29784D01*
Y29650D01*
X42559Y29409D01*
X42719Y29248D01*
X42704Y29171D01*
X42559Y29111D01*
D01*
Y29111D01*
X42541D01*
Y29111D01*
X42300Y29211D01*
X42059Y29111D01*
X42028Y29037D01*
X41967D01*
X41967Y29037D01*
Y29037D01*
X41850Y29085D01*
Y28555D01*
X41750D01*
Y29085D01*
X41633Y29037D01*
X41633D01*
D01*
X41572D01*
X41541Y29111D01*
X41300Y29211D01*
X41059Y29111D01*
X40959Y28870D01*
Y28696D01*
X40822Y28559D01*
X40722Y28318D01*
Y27896D01*
X40616D01*
Y27002D01*
X40722D01*
Y25984D01*
X40666Y25850D01*
X40709Y25747D01*
Y14091D01*
X40460Y13842D01*
X39958D01*
Y12858D01*
X40942D01*
Y13302D01*
X41003Y13352D01*
X41023Y13348D01*
X41147Y13047D01*
X41400Y12943D01*
Y13350D01*
Y13757D01*
X41388Y13752D01*
X41332Y13808D01*
X41391Y13950D01*
Y25747D01*
X41434Y25850D01*
X41404Y25921D01*
Y27002D01*
X41510D01*
Y27100D01*
X41540D01*
Y27100D01*
X41840D01*
Y27450D01*
X41890D01*
Y27500D01*
X42240D01*
Y27800D01*
X42120D01*
Y27903D01*
X42185Y27947D01*
X42300Y27899D01*
X42351Y27920D01*
X42416Y27877D01*
Y13869D01*
X42073Y13727D01*
X41937Y13397D01*
X41911D01*
Y13303D01*
X41937D01*
X42073Y12973D01*
X42450Y12817D01*
X42827Y12973D01*
X42911Y13176D01*
X42989D01*
X43073Y12973D01*
X43450Y12817D01*
X43827Y12973D01*
X43976Y13333D01*
X45071Y14429D01*
X45104Y14508D01*
X45184Y14700D01*
Y28555D01*
X45141Y28658D01*
Y28870D01*
X45041Y29111D01*
X44800Y29211D01*
X44706Y29172D01*
X44641Y29216D01*
Y29250D01*
X44541Y29491D01*
X44310Y29722D01*
X44325Y29799D01*
X44541Y29889D01*
X44572Y29963D01*
X44633D01*
X44633Y29963D01*
Y29963D01*
X44750Y29915D01*
Y30445D01*
Y30975D01*
X44706Y30957D01*
X44641Y31001D01*
Y36208D01*
X44706Y36252D01*
X44850Y36192D01*
Y36450D01*
Y36708D01*
X44706Y36648D01*
X44641Y36692D01*
Y39050D01*
X44641Y39050D01*
X44541Y39291D01*
X44414Y39418D01*
X44371Y39521D01*
X44100Y39634D01*
X43829Y39521D01*
X43716Y39250D01*
X43829Y38979D01*
X43932Y38936D01*
X43959Y38909D01*
Y31106D01*
X43894Y31062D01*
X43800Y31101D01*
X43706Y31062D01*
X43641Y31106D01*
Y32147D01*
X43684Y32250D01*
X43571Y32521D01*
X43300Y32634D01*
X43029Y32521D01*
X42982Y32408D01*
X42800Y32484D01*
X42529Y32371D01*
X42416Y32100D01*
X42459Y31997D01*
Y31106D01*
X42394Y31062D01*
X42300Y31101D01*
X42249Y31080D01*
X42184Y31123D01*
Y38591D01*
X43509Y39916D01*
X47005D01*
X47030Y39858D01*
X47196Y39789D01*
Y39711D01*
X47030Y39642D01*
X46867Y39250D01*
X47030Y38858D01*
X47196Y38789D01*
Y38711D01*
X47030Y38642D01*
X46867Y38250D01*
X47030Y37858D01*
X47196Y37789D01*
Y37711D01*
X47030Y37642D01*
X46867Y37250D01*
X47030Y36858D01*
X47196Y36789D01*
Y36711D01*
X47030Y36642D01*
X46867Y36250D01*
X47030Y35858D01*
X47421Y35696D01*
X47579D01*
X47970Y35858D01*
X48133Y36250D01*
X47970Y36642D01*
X47804Y36711D01*
Y36789D01*
X47970Y36858D01*
X48133Y37250D01*
X47970Y37642D01*
X47804Y37711D01*
Y37789D01*
X47970Y37858D01*
X48133Y38250D01*
X48090Y38353D01*
X48146Y38408D01*
X48350Y38324D01*
X48651Y38449D01*
X48776Y38750D01*
Y42800D01*
X48651Y43101D01*
X48201Y43551D01*
X47937Y43661D01*
X47952Y43738D01*
X48091D01*
Y44762D01*
D02*
G37*
G36*
X50067Y36695D02*
X49435Y36433D01*
X49173Y35800D01*
X49435Y35167D01*
X50067Y34905D01*
X50700Y35167D01*
X50962Y35800D01*
X50700Y36433D01*
X50067Y36695D01*
D02*
G37*
G36*
X35500Y36911D02*
X35033Y36717D01*
X34839Y36250D01*
X35033Y35783D01*
X35500Y35589D01*
X35967Y35783D01*
X36161Y36250D01*
X35967Y36717D01*
X35500Y36911D01*
D02*
G37*
G36*
X45658Y36400D02*
X45450D01*
Y36192D01*
X45597Y36253D01*
X45658Y36400D01*
D02*
G37*
%LPD*%
G36*
X44300Y27899D02*
X44351Y27920D01*
X44416Y27877D01*
Y14859D01*
X43433Y13876D01*
X43249Y13799D01*
X43184Y13843D01*
Y27877D01*
X43249Y27920D01*
X43300Y27899D01*
X43541Y27999D01*
X43541Y27999D01*
X43559D01*
Y27999D01*
X43800Y27899D01*
X44041Y27999D01*
Y27999D01*
X44059Y27999D01*
Y27999D01*
Y27999D01*
D01*
D01*
D01*
X44300Y27899D01*
D02*
G37*
G54D10*
X33879Y17256D02*
D03*
G54D11*
X33478Y15400D02*
D03*
X34301Y15398D02*
D03*
X41890Y27450D02*
D03*
X41063Y27449D02*
D03*
X33373Y22248D02*
D03*
X32550Y22250D02*
D03*
X32527Y23352D02*
D03*
X33350Y23350D02*
D03*
G54D12*
X34249Y15450D02*
X34699Y15900D01*
X34900D01*
X34249Y15450D02*
Y16456D01*
X41800Y38750D02*
X43350Y40300D01*
X41800Y30445D02*
Y38750D01*
X42450Y13350D02*
X42800Y13700D01*
Y28555D01*
X43450Y13350D02*
X44800Y14700D01*
Y28555D01*
X43350Y40300D02*
X47200D01*
X44100Y41250D02*
X47300D01*
X31190Y23570D02*
X32309D01*
X32527Y23352D01*
X33350Y22271D02*
Y23350D01*
Y22271D02*
X33373Y22248D01*
X34850Y29850D02*
X35750D01*
X40625Y34725D01*
X34850Y28850D02*
X35500D01*
X40800Y34150D01*
G54D13*
X30340Y19840D02*
X31190D01*
X29950Y19450D02*
X30340Y19840D01*
X29950Y16700D02*
Y19450D01*
X34850Y20300D02*
Y26850D01*
X34390Y19840D02*
X34850Y20300D01*
X31190Y19840D02*
X34390D01*
X40210Y31210D02*
X40750D01*
X41300Y30660D01*
Y30445D02*
Y30660D01*
X47300Y43250D02*
X47900D01*
X48350Y42800D01*
Y38750D02*
Y42800D01*
X40150Y31150D02*
X40210Y31210D01*
G54D14*
X41050Y13950D02*
Y25850D01*
X40450Y13350D02*
X41050Y13950D01*
Y25850D02*
X41063Y25863D01*
Y27449D01*
X33845Y17290D02*
X33879Y17256D01*
X31190Y17290D02*
X33845D01*
X30603Y15877D02*
X31190Y15290D01*
X29948Y15877D02*
X30603D01*
X44100Y39250D02*
X44300Y39050D01*
Y30445D02*
Y39050D01*
X41063Y28318D02*
X41300Y28555D01*
X41063Y27449D02*
Y28318D01*
X42800Y30445D02*
Y32100D01*
X43300Y28555D02*
Y29150D01*
X42800Y29650D02*
X43300Y29150D01*
X42800Y29650D02*
Y30445D01*
X44300Y28555D02*
Y29250D01*
X44000Y29550D02*
X44300Y29250D01*
X43700Y29550D02*
X44000D01*
X43300Y29950D02*
X43700Y29550D01*
X43300Y29950D02*
Y30445D01*
Y32250D01*
G54D16*
X35500Y44250D02*
D03*
Y36250D02*
D03*
G54D17*
X47500Y38250D02*
D03*
Y40250D02*
D03*
Y41250D02*
D03*
Y42250D02*
D03*
Y43250D02*
D03*
Y39250D02*
D03*
Y37250D02*
D03*
Y36250D02*
D03*
G54D18*
Y44250D02*
D03*
G54D19*
X31190Y17290D02*
D03*
Y15290D02*
D03*
Y23570D02*
D03*
Y21700D02*
D03*
Y19840D02*
D03*
G54D20*
X43450Y13350D02*
D03*
X42450D02*
D03*
X41450D02*
D03*
G54D21*
X40450D02*
D03*
G54D22*
X37400Y33200D02*
D03*
X46500D02*
D03*
X30650Y35800D02*
D03*
X50067D02*
D03*
X30650Y13000D02*
D03*
X49950D02*
D03*
X30350Y27250D02*
D03*
Y33550D02*
D03*
G54D23*
X50450Y28900D02*
D03*
X49450D02*
D03*
X50450Y29900D02*
D03*
X49450D02*
D03*
X50450Y30900D02*
D03*
X49450D02*
D03*
X50450Y31900D02*
D03*
X49450D02*
D03*
X50450Y24900D02*
D03*
X49450D02*
D03*
X50450Y25900D02*
D03*
X49450D02*
D03*
X50450Y26900D02*
D03*
X49450D02*
D03*
X50450Y27900D02*
D03*
X49450D02*
D03*
X50450Y32900D02*
D03*
X49450D02*
D03*
X50450Y33900D02*
D03*
X49450D02*
D03*
G54D24*
X50450Y22900D02*
D03*
X49450D02*
D03*
Y20900D02*
D03*
X50450D02*
D03*
Y19900D02*
D03*
X49450D02*
D03*
X50450Y17900D02*
D03*
X49450D02*
D03*
X50450Y16900D02*
D03*
X49450D02*
D03*
X50450Y15900D02*
D03*
X49450D02*
D03*
X50450Y14900D02*
D03*
X49450Y18900D02*
D03*
X50450D02*
D03*
Y21900D02*
D03*
X49450D02*
D03*
X50450Y23900D02*
D03*
X49450D02*
D03*
G54D25*
Y14900D02*
D03*
G54D26*
X34850Y28850D02*
D03*
Y33850D02*
D03*
Y32850D02*
D03*
Y31850D02*
D03*
Y30850D02*
D03*
Y29850D02*
D03*
Y27850D02*
D03*
G54D27*
Y26850D02*
D03*
G54D28*
X34900Y15900D02*
D03*
X44100Y39250D02*
D03*
Y41250D02*
D03*
X42800Y32100D02*
D03*
X43300Y32250D02*
D03*
X48350Y38750D02*
D03*
X40650Y34700D02*
D03*
X40800Y34150D02*
D03*
X41050Y25850D02*
D03*
X34850Y25450D02*
D03*
X40150Y31150D02*
D03*
X46200Y15100D02*
D03*
X47000D02*
D03*
X44900Y36450D02*
D03*
X45400D02*
D03*
G54D29*
X31700Y42200D02*
D03*
X31600Y40700D02*
D03*
Y39350D02*
D03*
G54D30*
X34249Y16456D02*
D03*
X33499D02*
D03*
G54D31*
X29950Y16700D02*
D03*
X29948Y15877D02*
D03*
G54D32*
X44800Y28555D02*
D03*
X44300D02*
D03*
X43800D02*
D03*
X43300D02*
D03*
X42800D02*
D03*
X42300D02*
D03*
X41800D02*
D03*
X41300D02*
D03*
X44800Y30445D02*
D03*
X44300D02*
D03*
X43800D02*
D03*
X43300D02*
D03*
X42800D02*
D03*
X42300D02*
D03*
X41800D02*
D03*
X41300D02*
D03*
G54D33*
X33478Y15400D02*
X33499Y15421D01*
Y16456D01*
X41800Y27540D02*
X41890Y27450D01*
X41800Y27540D02*
Y28555D01*
M02*
