%FSLAX24Y24*%
%MOIN*%
G70*
G01*
G75*
G04 Layer_Physical_Order=1*
G04 Layer_Color=255*
%ADD10R,0.0400X0.0500*%
%ADD11R,0.0500X0.0500*%
%ADD12C,0.0315*%
%ADD13C,0.0394*%
%ADD14C,0.0236*%
%ADD15C,0.0100*%
%ADD16C,0.0827*%
%ADD17O,0.0787X0.0630*%
%ADD18R,0.0787X0.0630*%
%ADD19C,0.1181*%
%ADD20C,0.0591*%
%ADD21R,0.0591X0.0591*%
%ADD22C,0.1260*%
%ADD23C,0.0669*%
%ADD24C,0.0669*%
%ADD25R,0.0669X0.0669*%
%ADD26O,0.0787X0.0669*%
%ADD27R,0.0787X0.0669*%
%ADD28C,0.0315*%
%ADD29C,0.0394*%
G36*
X30650Y45750D02*
X50600Y45700D01*
X50700D01*
Y45712D01*
X50765Y45755D01*
X51465Y45465D01*
X51782Y44700D01*
X51700Y12550D01*
X51700D01*
X51741Y12489D01*
X51512Y11938D01*
X50900Y11684D01*
X30150Y11750D01*
Y11750D01*
X30085Y11707D01*
X29499Y11949D01*
X29230Y12600D01*
X29300Y44850D01*
X29297D01*
X29253Y44915D01*
X29511Y45539D01*
X30200Y45824D01*
X30650Y45750D01*
D02*
G37*
%LPC*%
G36*
X47050Y15358D02*
Y15150D01*
X47258D01*
X47197Y15297D01*
X47050Y15358D01*
D02*
G37*
G36*
X31190Y18142D02*
X30587Y17893D01*
X30338Y17290D01*
X30587Y16687D01*
X31190Y16438D01*
X31793Y16687D01*
X32042Y17290D01*
X31793Y17893D01*
X31190Y18142D01*
D02*
G37*
G36*
Y20692D02*
X30587Y20443D01*
X30338Y19840D01*
X30587Y19237D01*
X31190Y18988D01*
X31793Y19237D01*
X32042Y19840D01*
X31793Y20443D01*
X31190Y20692D01*
D02*
G37*
G36*
X46150Y15358D02*
X46003Y15297D01*
X45942Y15150D01*
X46150D01*
Y15358D01*
D02*
G37*
G36*
X46250D02*
Y15150D01*
X46458D01*
X46397Y15297D01*
X46250Y15358D01*
D02*
G37*
G36*
X46950D02*
X46803Y15297D01*
X46742Y15150D01*
X46950D01*
Y15358D01*
D02*
G37*
G36*
X31140Y21650D02*
X30463D01*
X30661Y21171D01*
X31140Y20973D01*
Y21650D01*
D02*
G37*
G36*
X31190Y24422D02*
X30587Y24173D01*
X30338Y23570D01*
X30587Y22967D01*
X31190Y22718D01*
X31793Y22967D01*
X32042Y23570D01*
X31793Y24173D01*
X31190Y24422D01*
D02*
G37*
G36*
X34400Y24450D02*
X34150D01*
Y24150D01*
X34400D01*
Y24450D01*
D02*
G37*
G36*
X34750D02*
X34500D01*
Y24150D01*
X34750D01*
Y24450D01*
D02*
G37*
G36*
X31917Y21650D02*
X31240D01*
Y20973D01*
X31719Y21171D01*
X31917Y21650D01*
D02*
G37*
G36*
X31140Y22427D02*
X30661Y22229D01*
X30463Y21750D01*
X31140D01*
Y22427D01*
D02*
G37*
G36*
X31240D02*
Y21750D01*
X31917D01*
X31719Y22229D01*
X31240Y22427D01*
D02*
G37*
G36*
X47258Y15050D02*
X47050D01*
Y14842D01*
X47197Y14903D01*
X47258Y15050D01*
D02*
G37*
G36*
X41400Y13300D02*
X41043D01*
X41147Y13047D01*
X41400Y12943D01*
Y13300D01*
D02*
G37*
G36*
X41857D02*
X41500D01*
Y12943D01*
X41753Y13047D01*
X41857Y13300D01*
D02*
G37*
G36*
X41400Y13757D02*
X41147Y13653D01*
X41043Y13400D01*
X41400D01*
Y13757D01*
D02*
G37*
G36*
X30650Y13895D02*
X30017Y13633D01*
X29755Y13000D01*
X30017Y12367D01*
X30650Y12105D01*
X31283Y12367D01*
X31545Y13000D01*
X31283Y13633D01*
X30650Y13895D01*
D02*
G37*
G36*
X49950D02*
X49317Y13633D01*
X49055Y13000D01*
X49317Y12367D01*
X49950Y12105D01*
X50583Y12367D01*
X50845Y13000D01*
X50583Y13633D01*
X49950Y13895D01*
D02*
G37*
G36*
X40942Y13842D02*
X39958D01*
Y12858D01*
X40942D01*
Y13842D01*
D02*
G37*
G36*
X41500Y13757D02*
Y13400D01*
X41857D01*
X41753Y13653D01*
X41500Y13757D01*
D02*
G37*
G36*
X46150Y15050D02*
X45942D01*
X46003Y14903D01*
X46150Y14842D01*
Y15050D01*
D02*
G37*
G36*
X46458D02*
X46250D01*
Y14842D01*
X46397Y14903D01*
X46458Y15050D01*
D02*
G37*
G36*
X46950D02*
X46742D01*
X46803Y14903D01*
X46950Y14842D01*
Y15050D01*
D02*
G37*
G36*
X43450Y13883D02*
X43073Y13727D01*
X42989Y13524D01*
X42911D01*
X42827Y13727D01*
X42450Y13883D01*
X42073Y13727D01*
X41937Y13397D01*
X41911D01*
Y13303D01*
X41937D01*
X42073Y12973D01*
X42450Y12817D01*
X42827Y12973D01*
X42911Y13176D01*
X42989D01*
X43073Y12973D01*
X43450Y12817D01*
X43827Y12973D01*
X43983Y13350D01*
X43827Y13727D01*
X43450Y13883D01*
D02*
G37*
G36*
X31190Y16142D02*
X30587Y15893D01*
X30338Y15290D01*
X30587Y14687D01*
X31190Y14438D01*
X31793Y14687D01*
X32042Y15290D01*
X31793Y15893D01*
X31190Y16142D01*
D02*
G37*
G36*
X49400Y14850D02*
X49015D01*
Y14465D01*
X49400D01*
Y14850D01*
D02*
G37*
G36*
X31550Y40650D02*
X31342D01*
X31403Y40503D01*
X31550Y40442D01*
Y40650D01*
D02*
G37*
G36*
X31858D02*
X31650D01*
Y40442D01*
X31797Y40503D01*
X31858Y40650D01*
D02*
G37*
G36*
X31550Y40958D02*
X31403Y40897D01*
X31342Y40750D01*
X31550D01*
Y40958D01*
D02*
G37*
G36*
X31650Y39608D02*
Y39400D01*
X31858D01*
X31797Y39547D01*
X31650Y39608D01*
D02*
G37*
G36*
X31858Y39300D02*
X31650D01*
Y39092D01*
X31797Y39153D01*
X31858Y39300D01*
D02*
G37*
G36*
X44100Y41634D02*
X43829Y41521D01*
X43716Y41250D01*
Y39250D01*
X43829Y38979D01*
X44100Y38866D01*
X44371Y38979D01*
X44484Y39250D01*
X44484Y39250D01*
X44484Y39250D01*
Y41250D01*
X44371Y41521D01*
X44100Y41634D01*
D02*
G37*
G36*
X31550Y39608D02*
X31403Y39547D01*
X31342Y39400D01*
X31550D01*
Y39608D01*
D02*
G37*
G36*
X31750Y42458D02*
Y42250D01*
X31958D01*
X31897Y42397D01*
X31750Y42458D01*
D02*
G37*
G36*
X48091Y44762D02*
X46909D01*
Y43738D01*
X47061D01*
X47076Y43661D01*
X47030Y43642D01*
X46867Y43250D01*
X47030Y42858D01*
X47322Y42737D01*
Y42658D01*
X47104Y42568D01*
X46993Y42300D01*
X48007D01*
X47896Y42568D01*
X47678Y42658D01*
Y42737D01*
X47970Y42858D01*
X48133Y43250D01*
X47970Y43642D01*
X47924Y43661D01*
X47939Y43738D01*
X48091D01*
Y44762D01*
D02*
G37*
G36*
X35500Y44911D02*
X35033Y44717D01*
X34839Y44250D01*
X35033Y43783D01*
X35500Y43589D01*
X35967Y43783D01*
X36161Y44250D01*
X35967Y44717D01*
X35500Y44911D01*
D02*
G37*
G36*
X31650Y42458D02*
X31503Y42397D01*
X31442Y42250D01*
X31650D01*
Y42458D01*
D02*
G37*
G36*
Y40958D02*
Y40750D01*
X31858D01*
X31797Y40897D01*
X31650Y40958D01*
D02*
G37*
G36*
Y42150D02*
X31442D01*
X31503Y42003D01*
X31650Y41942D01*
Y42150D01*
D02*
G37*
G36*
X31958D02*
X31750D01*
Y41942D01*
X31897Y42003D01*
X31958Y42150D01*
D02*
G37*
G36*
X37400Y34095D02*
X36767Y33833D01*
X36505Y33200D01*
X36767Y32567D01*
X37400Y32305D01*
X38033Y32567D01*
X38295Y33200D01*
X38033Y33833D01*
X37400Y34095D01*
D02*
G37*
G36*
X30350Y34445D02*
X29717Y34183D01*
X29455Y33550D01*
X29717Y32917D01*
X30350Y32655D01*
X30983Y32917D01*
X31245Y33550D01*
X30983Y34183D01*
X30350Y34445D01*
D02*
G37*
G36*
X30650Y36695D02*
X30017Y36433D01*
X29755Y35800D01*
X30017Y35167D01*
X30650Y34905D01*
X31283Y35167D01*
X31545Y35800D01*
X31283Y36433D01*
X30650Y36695D01*
D02*
G37*
G36*
X34909Y34425D02*
X34791D01*
X34384Y34257D01*
X34216Y33850D01*
X34384Y33443D01*
X34514Y33389D01*
Y33311D01*
X34384Y33257D01*
X34216Y32850D01*
X34384Y32443D01*
X34514Y32389D01*
Y32311D01*
X34384Y32257D01*
X34216Y31850D01*
X34384Y31443D01*
X34514Y31389D01*
Y31311D01*
X34384Y31257D01*
X34216Y30850D01*
X34384Y30443D01*
X34514Y30389D01*
Y30311D01*
X34384Y30257D01*
X34216Y29850D01*
X34384Y29443D01*
X34514Y29389D01*
Y29311D01*
X34384Y29257D01*
X34216Y28850D01*
X34384Y28443D01*
X34641Y28337D01*
Y28258D01*
X34458Y28183D01*
X34341Y27900D01*
X35359D01*
X35242Y28183D01*
X35059Y28258D01*
Y28337D01*
X35316Y28443D01*
X35484Y28850D01*
X35316Y29257D01*
X35186Y29311D01*
Y29389D01*
X35316Y29443D01*
X35484Y29850D01*
X35316Y30257D01*
X35186Y30311D01*
Y30389D01*
X35316Y30443D01*
X35484Y30850D01*
X35316Y31257D01*
X35186Y31311D01*
Y31389D01*
X35316Y31443D01*
X35484Y31850D01*
X35316Y32257D01*
X35186Y32311D01*
Y32389D01*
X35316Y32443D01*
X35484Y32850D01*
X35316Y33257D01*
X35186Y33311D01*
Y33389D01*
X35316Y33443D01*
X35484Y33850D01*
X35316Y34257D01*
X34909Y34425D01*
D02*
G37*
G36*
X34400Y24850D02*
X34150D01*
Y24550D01*
X34400D01*
Y24850D01*
D02*
G37*
G36*
X34750D02*
X34500D01*
Y24550D01*
X34750D01*
Y24850D01*
D02*
G37*
G36*
X30350Y28145D02*
X29717Y27883D01*
X29455Y27250D01*
X29717Y26617D01*
X30350Y26355D01*
X30983Y26617D01*
X31245Y27250D01*
X30983Y27883D01*
X30350Y28145D01*
D02*
G37*
G36*
X45450Y36708D02*
Y36500D01*
X45658D01*
X45597Y36647D01*
X45450Y36708D01*
D02*
G37*
G36*
X45350D02*
X45203Y36647D01*
X45189Y36614D01*
X45111D01*
X45097Y36647D01*
X44950Y36708D01*
Y36450D01*
Y36192D01*
X45097Y36253D01*
X45111Y36286D01*
X45189D01*
X45203Y36253D01*
X45350Y36192D01*
Y36450D01*
Y36708D01*
D02*
G37*
G36*
X31550Y39300D02*
X31342D01*
X31403Y39153D01*
X31550Y39092D01*
Y39300D01*
D02*
G37*
G36*
X44850Y36708D02*
X44703Y36647D01*
X44642Y36500D01*
X44850D01*
Y36708D01*
D02*
G37*
G36*
X48007Y42200D02*
X46993D01*
X47104Y41932D01*
X47322Y41842D01*
Y41763D01*
X47030Y41642D01*
X46867Y41250D01*
X47030Y40858D01*
X47196Y40789D01*
Y40711D01*
X47030Y40642D01*
X46867Y40250D01*
X47030Y39858D01*
X47196Y39789D01*
Y39711D01*
X47030Y39642D01*
X46867Y39250D01*
X47030Y38858D01*
X47196Y38789D01*
Y38711D01*
X47030Y38642D01*
X46867Y38250D01*
X47030Y37858D01*
X47196Y37789D01*
Y37711D01*
X47030Y37642D01*
X46867Y37250D01*
X47030Y36858D01*
X47196Y36789D01*
Y36711D01*
X47030Y36642D01*
X46867Y36250D01*
X47030Y35858D01*
X47041Y35853D01*
X47026Y35776D01*
X36035D01*
X35991Y35842D01*
X36161Y36250D01*
X35967Y36717D01*
X35500Y36911D01*
X35033Y36717D01*
X34839Y36250D01*
X35009Y35842D01*
X34965Y35776D01*
X34450D01*
X34149Y35651D01*
X33399Y34901D01*
X33274Y34600D01*
Y26700D01*
X33274Y26700D01*
X33274Y26700D01*
X33399Y26399D01*
X33828Y25970D01*
X33798Y25897D01*
X33180D01*
Y25003D01*
X33203D01*
Y24947D01*
X33203D01*
Y24053D01*
X33997D01*
Y24494D01*
X34011Y24527D01*
Y25003D01*
X34074D01*
Y25005D01*
X34897D01*
Y25045D01*
X35151Y25151D01*
X35276Y25452D01*
X35151Y25753D01*
X34897Y25859D01*
Y25899D01*
X34876D01*
Y25950D01*
X34751Y26251D01*
X34779Y26319D01*
X35441D01*
Y27381D01*
X35116D01*
X35100Y27459D01*
X35242Y27517D01*
X35359Y27800D01*
X34341D01*
X34458Y27517D01*
X34600Y27459D01*
X34584Y27381D01*
X34259D01*
Y26846D01*
X34187Y26816D01*
X34126Y26877D01*
Y34423D01*
X34627Y34924D01*
X40288D01*
X40332Y34858D01*
X40267Y34701D01*
X40266Y34700D01*
X40379Y34429D01*
X40458Y34396D01*
X40488Y34323D01*
X40416Y34150D01*
X40529Y33879D01*
X40800Y33766D01*
X45769D01*
X45813Y33701D01*
X45605Y33200D01*
X45867Y32567D01*
X46500Y32305D01*
X47133Y32567D01*
X47395Y33200D01*
X47322Y33377D01*
X47387Y33420D01*
X48884Y31923D01*
X48875Y31900D01*
X48930Y31766D01*
X48875Y31710D01*
X48800Y31741D01*
X44191D01*
X43683Y32249D01*
X43684Y32250D01*
X43571Y32521D01*
X43300Y32634D01*
X43029Y32521D01*
X43003Y32460D01*
X42931Y32429D01*
X42800Y32484D01*
X42529Y32371D01*
X42416Y32100D01*
X42529Y31829D01*
X42632Y31786D01*
X44259Y30159D01*
X44500Y30059D01*
X48850D01*
X48864Y30065D01*
X48920Y30009D01*
X48875Y29900D01*
X49043Y29493D01*
X49173Y29439D01*
Y29361D01*
X49090Y29326D01*
X42577D01*
X40451Y31451D01*
X40150Y31576D01*
X39849Y31451D01*
X39724Y31150D01*
X39849Y30849D01*
X42099Y28599D01*
X42099Y28599D01*
X42099D01*
X42099Y28599D01*
X42099D01*
Y28599D01*
D01*
D01*
D01*
D01*
X42099D01*
Y28599D01*
D01*
X42400Y28474D01*
X49090D01*
X49173Y28439D01*
Y28361D01*
X49043Y28307D01*
X48875Y27900D01*
X49043Y27493D01*
X49173Y27439D01*
Y27361D01*
X49043Y27307D01*
X48875Y26900D01*
X49043Y26493D01*
X49173Y26439D01*
Y26361D01*
X49043Y26307D01*
X49016Y26241D01*
X41100D01*
X41100Y26241D01*
X41066Y26227D01*
X41050Y26234D01*
X40779Y26121D01*
X40666Y25850D01*
X40779Y25579D01*
X41050Y25466D01*
X41274Y25559D01*
X49016D01*
X49043Y25493D01*
X49173Y25439D01*
Y25361D01*
X49043Y25307D01*
X48875Y24900D01*
X49043Y24493D01*
X49173Y24439D01*
Y24361D01*
X49043Y24307D01*
X48875Y23900D01*
X49043Y23493D01*
X49173Y23439D01*
Y23361D01*
X49043Y23307D01*
X48875Y22900D01*
X49043Y22493D01*
X49300Y22387D01*
Y22308D01*
X49117Y22233D01*
X49000Y21950D01*
X49450D01*
Y21850D01*
X49000D01*
X49117Y21567D01*
X49300Y21492D01*
Y21413D01*
X49043Y21307D01*
X48875Y20900D01*
X49043Y20493D01*
X49173Y20439D01*
Y20361D01*
X49043Y20307D01*
X48875Y19900D01*
X49043Y19493D01*
X49173Y19439D01*
Y19361D01*
X49043Y19307D01*
X48875Y18900D01*
X49043Y18493D01*
X49173Y18439D01*
Y18361D01*
X49043Y18307D01*
X48875Y17900D01*
X49043Y17493D01*
X49173Y17439D01*
Y17361D01*
X49043Y17307D01*
X48875Y16900D01*
X49043Y16493D01*
X49173Y16439D01*
Y16361D01*
X49043Y16307D01*
X49034Y16284D01*
X34900D01*
X34629Y16171D01*
X34516Y15900D01*
X34629Y15629D01*
X34900Y15516D01*
X49034D01*
X49043Y15493D01*
X49240Y15412D01*
X49224Y15335D01*
X49015D01*
Y14950D01*
X49450D01*
Y14900D01*
X49500D01*
Y14465D01*
X49885D01*
Y14674D01*
X49962Y14690D01*
X50043Y14493D01*
X50450Y14325D01*
X50857Y14493D01*
X51025Y14900D01*
X50857Y15307D01*
X50727Y15361D01*
Y15439D01*
X50857Y15493D01*
X51025Y15900D01*
X50857Y16307D01*
X50727Y16361D01*
Y16439D01*
X50857Y16493D01*
X51025Y16900D01*
X50857Y17307D01*
X50600Y17413D01*
Y17492D01*
X50783Y17567D01*
X50900Y17850D01*
X50450D01*
Y17950D01*
X50900D01*
X50783Y18233D01*
X50600Y18308D01*
Y18387D01*
X50857Y18493D01*
X51025Y18900D01*
X50857Y19307D01*
X50600Y19413D01*
Y19492D01*
X50783Y19567D01*
X50900Y19850D01*
X50450D01*
Y19950D01*
X50900D01*
X50783Y20233D01*
X50600Y20308D01*
Y20387D01*
X50857Y20493D01*
X51025Y20900D01*
X50857Y21307D01*
X50727Y21361D01*
Y21439D01*
X50857Y21493D01*
X51025Y21900D01*
X50857Y22307D01*
X50727Y22361D01*
Y22439D01*
X50857Y22493D01*
X51025Y22900D01*
X50857Y23307D01*
X50727Y23361D01*
Y23439D01*
X50857Y23493D01*
X51025Y23900D01*
X50857Y24307D01*
X50600Y24413D01*
Y24492D01*
X50783Y24567D01*
X50900Y24850D01*
X50450D01*
Y24950D01*
X50900D01*
X50783Y25233D01*
X50600Y25308D01*
Y25387D01*
X50857Y25493D01*
X51025Y25900D01*
X50857Y26307D01*
X50727Y26361D01*
Y26439D01*
X50857Y26493D01*
X51025Y26900D01*
X50857Y27307D01*
X50600Y27413D01*
Y27492D01*
X50783Y27567D01*
X50900Y27850D01*
X50450D01*
Y27950D01*
X50900D01*
X50783Y28233D01*
X50600Y28308D01*
Y28387D01*
X50857Y28493D01*
X51025Y28900D01*
X50857Y29307D01*
X50727Y29361D01*
Y29439D01*
X50857Y29493D01*
X51025Y29900D01*
X50857Y30307D01*
X50727Y30361D01*
Y30439D01*
X50857Y30493D01*
X51025Y30900D01*
X50857Y31307D01*
X50600Y31413D01*
Y31492D01*
X50783Y31567D01*
X50900Y31850D01*
X50450D01*
Y31950D01*
X50900D01*
X50783Y32233D01*
X50600Y32308D01*
Y32387D01*
X50857Y32493D01*
X51025Y32900D01*
X50876Y33260D01*
Y33540D01*
X51025Y33900D01*
X50876Y34260D01*
Y34400D01*
X50751Y34701D01*
X50457Y34996D01*
X50472Y35073D01*
X50700Y35167D01*
X50962Y35800D01*
X50700Y36433D01*
X50067Y36695D01*
X49435Y36433D01*
X49173Y35800D01*
X49425Y35192D01*
X49381Y35126D01*
X49277D01*
X48776Y35627D01*
Y38750D01*
X48651Y39051D01*
X48350Y39176D01*
X48146Y39092D01*
X48090Y39147D01*
X48133Y39250D01*
X47970Y39642D01*
X47804Y39711D01*
Y39789D01*
X47970Y39858D01*
X48133Y40250D01*
X47970Y40642D01*
X47804Y40711D01*
Y40789D01*
X47970Y40858D01*
X48133Y41250D01*
X47970Y41642D01*
X47678Y41763D01*
Y41842D01*
X47896Y41932D01*
X48007Y42200D01*
D02*
G37*
G36*
X44850Y36400D02*
X44642D01*
X44703Y36253D01*
X44850Y36192D01*
Y36400D01*
D02*
G37*
G36*
X45658D02*
X45450D01*
Y36192D01*
X45597Y36253D01*
X45658Y36400D01*
D02*
G37*
%LPD*%
G54D10*
X33600Y24500D02*
D03*
X34450D02*
D03*
G54D11*
X33627Y25450D02*
D03*
X34450Y25452D02*
D03*
G54D12*
X34900Y15900D02*
X49450D01*
X44100Y39250D02*
Y41250D01*
X33627Y24527D02*
Y25450D01*
X33600Y25150D02*
X33627Y25177D01*
X50450Y28900D02*
X50600D01*
X40800Y34150D02*
X47200D01*
X49450Y31900D01*
X40650Y34700D02*
X47650D01*
X49450Y32900D01*
G54D13*
X34450Y25452D02*
Y25950D01*
X33700Y26700D02*
X34450Y25950D01*
X33700Y26700D02*
Y34600D01*
X40150Y31150D02*
X42400Y28900D01*
X49450D01*
X50450Y32900D02*
Y33900D01*
X48350Y35450D02*
Y38750D01*
Y35450D02*
X49100Y34700D01*
X50150D01*
X50450Y34400D01*
Y33900D02*
Y34400D01*
X34450Y25452D02*
X34850D01*
X33700Y34600D02*
X34450Y35350D01*
X48450D01*
G54D14*
X41050Y25850D02*
X41100Y25900D01*
X49450D01*
X49950Y31400D02*
X50450Y30900D01*
X44050Y31400D02*
X48800D01*
X43250Y32200D02*
X44050Y31400D01*
X49950Y30400D02*
X50450Y29900D01*
X44500Y30400D02*
X48850D01*
X42800Y32100D02*
X44500Y30400D01*
G54D15*
X48800Y31400D02*
X49950D01*
X48850Y30400D02*
X49950D01*
G54D16*
X35500Y44250D02*
D03*
Y36250D02*
D03*
G54D17*
X47500Y38250D02*
D03*
Y40250D02*
D03*
Y41250D02*
D03*
Y42250D02*
D03*
Y43250D02*
D03*
Y39250D02*
D03*
Y37250D02*
D03*
Y36250D02*
D03*
G54D18*
Y44250D02*
D03*
G54D19*
X31190Y17290D02*
D03*
Y15290D02*
D03*
Y23570D02*
D03*
Y21700D02*
D03*
Y19840D02*
D03*
G54D20*
X43450Y13350D02*
D03*
X42450D02*
D03*
X41450D02*
D03*
G54D21*
X40450D02*
D03*
G54D22*
X37400Y33200D02*
D03*
X46500D02*
D03*
X30650Y35800D02*
D03*
X50067D02*
D03*
X30650Y13000D02*
D03*
X49950D02*
D03*
X30350Y27250D02*
D03*
Y33550D02*
D03*
G54D23*
X50450Y28900D02*
D03*
X49450D02*
D03*
X50450Y29900D02*
D03*
X49450D02*
D03*
X50450Y30900D02*
D03*
X49450D02*
D03*
X50450Y31900D02*
D03*
X49450D02*
D03*
X50450Y24900D02*
D03*
X49450D02*
D03*
X50450Y25900D02*
D03*
X49450D02*
D03*
X50450Y26900D02*
D03*
X49450D02*
D03*
X50450Y27900D02*
D03*
X49450D02*
D03*
X50450Y32900D02*
D03*
X49450D02*
D03*
X50450Y33900D02*
D03*
X49450D02*
D03*
G54D24*
X50450Y22900D02*
D03*
X49450D02*
D03*
Y20900D02*
D03*
X50450D02*
D03*
Y19900D02*
D03*
X49450D02*
D03*
X50450Y17900D02*
D03*
X49450D02*
D03*
X50450Y16900D02*
D03*
X49450D02*
D03*
X50450Y15900D02*
D03*
X49450D02*
D03*
X50450Y14900D02*
D03*
X49450Y18900D02*
D03*
X50450D02*
D03*
Y21900D02*
D03*
X49450D02*
D03*
X50450Y23900D02*
D03*
X49450D02*
D03*
G54D25*
Y14900D02*
D03*
G54D26*
X34850Y28850D02*
D03*
Y33850D02*
D03*
Y32850D02*
D03*
Y31850D02*
D03*
Y30850D02*
D03*
Y29850D02*
D03*
Y27850D02*
D03*
G54D27*
Y26850D02*
D03*
G54D28*
X34900Y15900D02*
D03*
X44100Y39250D02*
D03*
Y41250D02*
D03*
X42800Y32100D02*
D03*
X43300Y32250D02*
D03*
X48350Y38750D02*
D03*
X40650Y34700D02*
D03*
X40800Y34150D02*
D03*
X41050Y25850D02*
D03*
X34850Y25450D02*
D03*
X40150Y31150D02*
D03*
X46200Y15100D02*
D03*
X47000D02*
D03*
X44900Y36450D02*
D03*
X45400D02*
D03*
G54D29*
X31700Y42200D02*
D03*
X31600Y40700D02*
D03*
Y39350D02*
D03*
M02*
