M48
;Layer_Color=9474304
;FILE_FORMAT=2:4
INCH,TZ
;TYPE=PLATED
T1F00S00C0.0197
T2F00S00C0.0315
T3F00S00C0.0354
T4F00S00C0.0394
T5F00S00C0.0591
T6F00S00C0.0787
T7F00S00C0.1220
T8F00S00C0.1260
%
T01
X46200Y15100
X47000
X34900Y15900
X34850Y25450
X41050Y25850
X40150Y31150
X42800Y32100
X43300Y32250
X40800Y34150
X40650Y34700
X44900Y36450
X45400
X44100Y39250
Y41250
X31600Y40700
Y39350
X31700Y42200
X48350Y38750
T02
X49450Y14900
X50450
Y15900
Y16900
Y17900
X49450
Y16900
Y15900
Y18900
Y19900
Y20900
X50450
Y19900
Y18900
Y21900
Y22900
X49450
Y21900
Y23900
X50450
Y24900
X49450
Y25900
X50450
Y26900
X49450
Y27900
Y28900
X50450
Y29900
X49450
Y30900
X50450
Y27900
X34850Y27850
Y28850
Y29850
Y30850
Y26850
Y31850
Y32850
Y33850
X49450Y33900
Y32900
Y31900
X50450
Y32900
Y33900
T03
X40450Y13350
X41450
X42450
X43450
T04
X47500Y36250
Y37250
Y38250
Y39250
Y40250
Y41250
Y42250
Y43250
Y44250
T05
X31190Y15290
Y17290
Y19840
Y21700
Y23570
T06
X35500Y36250
Y44250
T07
X30650Y13000
X49950
X30650Y35800
X37400Y33200
X46500
X50067Y35800
T08
X30350Y27250
Y33550
M30
